<?xml version="1.0" encoding="utf-8"?>
<!-- Generator: Adobe Illustrator 27.3.1, SVG Export Plug-In . SVG Version: 6.00 Build 0)  -->
<svg version="1.1" id="Layer_1" xmlns="http://www.w3.org/2000/svg" xmlns:xlink="http://www.w3.org/1999/xlink" x="0px" y="0px"
	 viewBox="0 0 1024 1024" style="enable-background:new 0 0 1024 1024;" xml:space="preserve">
<g transform="translate(0.000000,1024.000000) scale(0.100000,-0.100000)">
	<path d="M8050,7833c-6-49-12-92-14-97c-1-5-33-17-71-27c-66-17-70-17-105,1c-80,41-150,54-292,54c-75,1-140-3-145-7
		c-4-5-8-73-7-150c0-148,18-234,63-313l18-31l-285-6c-157-4-649-7-1093-7s-815-3-824-6c-24-10-48-62-40-92c3-14,16-34,27-44
		c20-17,80-18,1252-20c677-1,1244-2,1259-1c53,2,82,53,61,108c-4,9-33,34-66,56c-95,65-141,141-163,272c-5,35-4,37,19,37
		c37,0,128-37,174-70c23-16,59-54,82-85c43-59,59-65,118-44c56,19,77,89,48,160c-6,13,3,17,55,23c315,32,595-53,759-230
		c66-71,99-137,135-263c28-102,38-123,143-322c40-75,72-139,72-142c0-4-33-7-72-8c-110-2-123-7-122-54c1-32,9-45,41-74
		c21-20,48-41,59-47c19-11,19-12-1-34c-27-30-61-46-116-54c-49-7-136,8-164,28c-17,12-15,17,22,72c105,154,125,195,119,237
		c-11,67-123,368-147,393c-53,57-201,101-296,89c-146-18-240-74-339-199c-93-119-171-151-304-125c-50,10-64,17-77,40
		c-22,38-39,42-128,34l-75-7v-50c0-62,25-185,51-252c64-162,230-331,408-415l58-27l-49-60c-27-32-79-101-115-151c-36-51-69-90-73-88
		c-4,3-14-3-21-13c-13-15-12-16,4-3c19,15,24,2,5-17c-9-9-15-9-27,1c-14,10-14,10-3-5c12-14,10-21-9-47c-17-23-25-28-32-19
		c-6,9-7,7-3-5c5-17-41-114-84-177c-31-45-77-143-134-289c-90-228-142-318-245-424c-132-138-294-221-556-287c-163-42-156-43-149,33
		s14,83,201,195c168,102,259,170,362,274c104,104,136,155,128,205c-8,49-42,83-82,83c-37,0-61-17-165-115c-140-132-318-256-522-365
		l-116-62l-7-52c-38-299-99-728-121-846c-34-181-140-331-268-379c-93-35-201-41-702-41h-482l-43,73c-235,399-512,673-850,842
		c-121,61-231,96-424,135c-176,35-254,57-340,95c-150,67-306,199-359,304c-46,91-59,163-53,311c6,154,25,241,86,384
		c169,395,474,660,890,774l96,26l1210,6c1180,6,1212,7,1305,27c223,50,416,121,573,211l88,51l130,7c127,7,130,7,154,36
		c28,33,31,54,14,92c-20,42-50,47-270,44l-204-3l-64-44c-115-79-266-141-461-189l-105-26l-1200-6c-844-5-1215-10-1250-18
		c-258-59-423-130-605-261l-85-61h-663h-663l-24-25c-16-15-25-36-25-55s9-40,25-55l24-25h586h587l-45-52c-88-105-167-237-227-380
		l-39-93l-746-5l-747-5l-19-24c-21-26-25-78-6-102c30-39,36-39,766-39h711l-5-27c-15-87-25-194-25-263v-80l-595-2l-594-3l-22-22
		c-30-29-29-76,1-108l23-25l606-2l605-3l8-40c3-22,16-69,27-104c12-35,21-65,21-67s-333-4-739-4c-407,0-747-3-756-6
		c-23-9-48-62-41-90c4-13,16-33,28-44c21-20,32-20,800-20h778l28-46c50-86,119-169,210-255c142-135,283-211,494-266
		c100-25,112-26,465-30l362-5l67-76c104-118,208-263,286-396c39-67,81-131,95-143l24-23h610c518,0,621,2,687,16
		c119,24,219,73,294,142c27,25,29,25,92,14c202-38,378-113,450-193c52-58,59-93,26-139l-20-28l-35,34c-41,38-88,54-162,54
		c-42,0-54-4-63-20c-10-18-4-29,41-78l52-57l-49-8c-64-11-107,2-168,53c-64,53-118,84-192,112c-52,20-77,22-219,21
		c-88,0-227-8-310-17c-343-36-448-45-610-51c-177-7-385-12-543-14l-92-1l-44-40c-42-39-45-40-117-40c-112,0-243-18-300-40
		c-119-47-223-143-278-255c-43-87-61-165-68-292l-6-112l-999-3l-1000-3l-24-28c-13-15-24-37-24-48c0-28,26-75,45-83
		c9-3,1533-6,3387-6h3370l29,29c16,16,29,37,29,46c0,29-30,76-56,85c-16,6-764,10-1992,10H4536l389,226c215,125,449,261,520,304
		c97,57,142,78,177,82c45,5,47,4,80-39c46-62,139-130,207-151c41-12,90-17,186-17c118,1,136,3,193,27c34,15,82,40,107,57l46,31
		l74-25c86-29,216-34,304-10c132,35,243,121,295,228c26,53,28,64,23,140c-3,45-9,93-12,107c-5,23,6,34,116,115
		c67,50,136,107,155,129c71,83,103,194,85,298c-21,119-87,224-258,407c-54,58-93,106-87,108c32,11,236,130,274,161
		c91,73,204,189,250,257c71,105,103,175,169,368c76,220,137,352,236,503c127,195,260,338,381,409l43,25l53-33
		c199-128,344-148,498-70c98,50,147,114,220,287c36,86,69,148,102,188c26,33,48,66,48,72s-35,81-78,166c-91,181-108,232-127,371
		c-23,177-71,282-182,400c-72,76-169,145-259,185c-64,28-211,68-288,79c-34,5-68,20-114,51c-77,53-143,88-229,120
		c-35,13-65,24-67,24S8057,7881,8050,7833z M8575,6924c48-24,82-27,126-9c12,5,22-17,52-113c20-66,37-130,37-144c0-13-38-86-85-162
		c-56-91-83-145-80-157c11-34,114-117,173-139c60-23,156-31,207-17l29,8l-19-21c-57-63-181-66-293-8c-37,19-103,53-147,75
		c-58,30-113,48-203,67c-67,14-150,37-183,51c-108,44-218,135-283,237l-17,26h93c162,0,240,44,332,186c61,94,80,113,133,132
		C8501,6955,8518,6953,8575,6924z M3113,4426c-3-5-1-6,5-2s43-7,82-23c66-28,155-50,415-101c83-16,134-33,205-69c55-27,94-52,92-60
		c-1-7,2-10,8-6c5,3,20-1,32-10c21-15,9-16-187-12c-233,4-285,14-425,79c-117,54-257,168-303,245c-4,7,12,2,37-10
		C3098,4445,3116,4431,3113,4426z M7048,4103c198-214,216-239,215-306c-1-64-18-86-129-165c-49-35-110-81-135-102l-46-39l-36,25
		c-20,13-39,24-44,24c-4,0-37,11-73,24c-95,36-103,38-125,41c-26,3-177,44-182,49c-3,2,0,13,5,23s20,61,32,113c13,52,24,97,26,99
		s36-21,77-51c83-63,118-83,165-91c74-15,149,52,137,123c-7,39-54,90-85,90c-28,0-71,28-161,106c-79,68-79,69-52,76
		c16,4,84,23,153,42s130,35,136,35C6933,4220,6987,4167,7048,4103z M6173,3004c46-8,47-17,5-35c-49-20-175-17-222,6
		c-33,16-36,20-20,26C5959,3010,6121,3012,6173,3004z M5120,2942c0-4-33-25-72-47c-40-21-90-49-111-62s-43-21-49-17s-8,3-5-3
		c3-5-33-32-81-59s-121-68-162-92c-121-68-231-123-298-148c-56-22-79-24-222-24h-160l6,28c4,15,10,31,15,36c4,5,5,15,2,24
		c-4,10-2,13,5,8c8-5,10-2,6,8c-9,24,33,101,76,140c22,19,63,48,92,63c50,26,62,28,228,33c191,5,195,7,265,71l42,39l209,3
		c115,1,210,3,212,5C5119,2949,5120,2946,5120,2942z"/>
	<path d="M2321,7544c-24-31-26-43-9-79c15-33,73-49,158-42c54,4,68,9,87,32c30,34,29,60-2,90c-22,23-32,25-119,25
		C2346,7570,2341,7569,2321,7544z"/>
	<path d="M3582,7563c-24-9-43-60-33-86c23-59-4-57,703-57h647l27,23c35,31,38,82,5,109c-22,17-56,18-680,17
		C3890,7569,3589,7566,3582,7563z"/>
	<path d="M5246,7549c-51-40-16-129,51-129c79,1,107,107,36,139C5298,7575,5276,7573,5246,7549z"/>
	<path d="M6831,7544c-29-36-26-60,9-96l30-30l131,4c129,3,131,3,155,31c31,36,30,62-1,92c-23,24-29,25-164,25
		C6852,7570,6851,7570,6831,7544z"/>
	<path d="M3036,7518c-13-19-14-25-2-43c17-26,49-31,70-10c20,21,20,39,0,59C3082,7546,3054,7544,3036,7518z"/>
	<path d="M5902,7528c-7-7-12-21-12-33c0-44,60-63,80-26c14,27,13,37-6,55C5946,7543,5919,7545,5902,7528z"/>
	<path d="M6355,7516c-8-13-13-31-9-40c8-22,50-31,69-16c21,18,19,57-4,70C6382,7545,6372,7543,6355,7516z"/>
	<path d="M2461,7204c-12-15-21-37-21-49s9-34,21-49l20-26h548h548l21,23c29,31,28,72-3,102l-24,25h-545h-545L2461,7204z"/>
	<path d="M4506,7209c-37-29-36-80,2-109c22-18,36-21,76-17c122,11,113,147-9,147C4547,7230,4524,7223,4506,7209z"/>
	<path d="M1546,7199c-31-25-34-61-6-89c29-29,74-26,99,6c27,34,26,50-4,79C1605,7225,1581,7226,1546,7199z"/>
	<path d="M1920,7198c-29-31-26-72,7-98c67-53,153,40,93,100C1993,7227,1946,7226,1920,7198z"/>
	<path d="M3880,7190c-25-25-26-52-2-73c24-22,45-21,65,1c23,26,21,58-5,76C3909,7214,3904,7214,3880,7190z"/>
	<path d="M1163,6858c-27-13-47-59-38-88c4-11,16-30,28-40c21-20,46-20,2080-20h2059l29,29c35,36,37,69,4,105l-24,26l-2058-1
		C1823,6869,1178,6865,1163,6858z"/>
	<path d="M7370,6493c-43-55-11-220,55-285c38-38,88-38,112-1c54,83-33,313-118,313C7401,6520,7384,6511,7370,6493z"/>
	<path d="M6778,6377c-49-38-108-141-108-191c0-74,62-99,130-52c46,31,98,119,106,178c6,41,4,49-19,72C6853,6418,6830,6417,6778,6377
		z"/>
	<path d="M6110,6323c-83-17-78-114,7-149c88-37,212-36,255,3c44,39,7,111-68,132C6257,6322,6145,6330,6110,6323z"/>
	<path d="M5608,6303c-35-5-68-46-61-76c9-35,52-75,102-94c65-25,182-25,210,1c61,55-17,140-154,165c-32,6-61,10-64,10
		C5638,6308,5623,6305,5608,6303z"/>
	<path d="M4010,6294c-52-22-63-64-29-108c59-75,261-109,317-53c21,22,18,65-8,92c-13,14-48,34-79,46C4155,6292,4038,6305,4010,6294z
		"/>
	<path d="M4580,6282c-61-9-79-68-35-120c59-70,244-113,294-68c46,42,13,109-73,150C4711,6270,4623,6288,4580,6282z"/>
	<path d="M5083,6245c-76-55,45-179,187-192c153-14,163,100,15,173C5215,6260,5116,6269,5083,6245z"/>
	<path d="M7077,6198c-90-86-115-241-44-267c70-26,176,100,177,209C7210,6233,7144,6261,7077,6198z"/>
	<path d="M6322,6004c-80-56-14-175,78-142c30,10,60,52,60,83c0,9-13,30-29,46C6398,6024,6357,6029,6322,6004z"/>
	<path d="M1608,5994c-16-8-28-11-28-7s-5,1-10-7c-6-10-10-11-10-2c0,8-19,12-62,11c-53-1-58-2-30-9c39-9,53-20,26-20
		c-16-1-15-3,6-14c24-14,23-14-25-21c-75-10-77-13-7-14c34-1,62-5,62-11c0-5,9-10,20-10s20,5,20,12c0,6,9,3,21-8c18-16,40-19,156-22
		c129-3,136-3,159,19c29,28,31,68,4,97c-19,20-30,22-148,22C1669,6009,1628,6005,1608,5994z"/>
	<path d="M2085,5985c-14-13-25-35-25-49c0-30,35-66,66-66c34,0,74,37,74,70c0,32-39,70-72,70C2118,6010,2098,5999,2085,5985z"/>
	<path d="M3543,5981c-60-38-40-101,44-142c39-18,65-23,140-23c83-1,94,1,117,23c36,33,33,63-9,99c-42,38-87,51-185,58
		C3586,6001,3570,5998,3543,5981z"/>
	<path d="M5791,5958c-30-16-43-58-27-90c29-61,218-108,298-75c73,31,61,102-25,144C5978,5967,5830,5979,5791,5958z"/>
	<path d="M5455,5905c-30-30-31-54-4-89c39-50,129-20,129,43c0,30-43,71-75,71C5491,5930,5468,5919,5455,5905z"/>
	<path d="M1498,5893c7-3,16-2,19,1c4,3-2,6-13,5C1493,5899,1490,5896,1498,5893z"/>
	<path d="M4896,5884c-27-26-20-72,17-108c69-70,240-103,287-56c11,11,20,30,20,41c0,33-68,93-133,117C5017,5905,4919,5908,4896,5884
		z"/>
	<path d="M6705,5846c-108-26-175-84-162-138c16-61,152-64,266-7c71,37,98,70,88,110C6885,5858,6810,5872,6705,5846z"/>
	<path d="M4410,5843c-22-8-40-34-40-59c0-58,103-123,207-132c189-15,184,127-6,182C4518,5850,4440,5854,4410,5843z"/>
	<path d="M7233,5800c-41-24-102-116-114-169c-16-73,6-111,66-111c35,0,108,69,140,133C7384,5772,7330,5859,7233,5800z"/>
	<path d="M3947,5660c-65-51-40-125,66-195c141-93,269-214,373-350c17-22,164-238,326-480c163-242,350-521,417-619
		c66-99,121-183,121-188c0-4-9-17-20-28c-27-27-27-93,0-120c30-30,60-33,234-27c217,8,291,30,356,103c18,21,39,54,47,73
		c8,20,26,132,38,251c22,203,63,573,102,919c14,125,21,159,38,178c11,13,87,74,170,136c170,127,186,148,164,211c-12,34-21,43-55,55
		c-23,8-52,11-67,7c-46-11-295-184-374-260c-53-49-67-92-88-256c-8-69-19-154-25-190c-23-156-31-220-36-289c-2-40-7-77-10-82
		s-34-9-70-9c-58,0-65,2-60,18c3,9,10,55,16,102c24,196,30,221,50,210c13-7,23-4,40,10c13,11,30,21,39,21c9,1-65,7-164,15
		c-361,26-604,102-845,264c-47,31-157,126-245,210c-168,160-237,215-363,286C4035,5686,3988,5692,3947,5660z M5690,4846
		c0-3-4-8-10-11c-5-3-10-1-10,4c0,6,5,11,10,11C5686,4850,5690,4848,5690,4846z M5450,4312c52-16,130-38,173-48l77-18v-36
		c0-47-27-260-35-282c-4-10-13-18-20-18c-6,0-54,53-106,117c-52,65-138,170-191,234c-54,65-98,120-98,123s24-6,53-18
		C5331,4353,5398,4329,5450,4312z"/>
	<path d="M3415,5640c-139-21-216-101-154-159c78-73,353,19,324,108C3571,5633,3504,5653,3415,5640z"/>
	<path d="M5352,5568c-12-6-25-22-29-36c-16-64,42-113,158-131c114-19,179,5,179,63c0,40-39,79-98,96C5507,5577,5379,5582,5352,5568z
		"/>
	<path d="M6707,5476c-83-28-127-67-127-113s43-68,121-59c122,12,229,76,229,137C6930,5503,6831,5518,6707,5476z"/>
	<path d="M4743,5483c-27-5-53-39-53-68c0-33,59-82,124-105c120-41,226-18,226,50c0,37-65,94-124,109C4863,5482,4772,5490,4743,5483z
		"/>
	<path d="M2982,5394c-41-28-18-104,32-104c19,0,66,43,66,60c0,15-46,60-62,60C3010,5410,2994,5403,2982,5394z"/>
	<path d="M3767,5372c-26-29-22-77,10-101c31-25,58-20,91,15c28,32,28,55-1,82S3789,5397,3767,5372z"/>
	<path d="M3365,5268c-67-38-37-109,68-159c105-49,202-48,240,3c18,24,18,27,3,56C3637,5243,3435,5308,3365,5268z"/>
	<path d="M5236,5230c-58-18-81-63-56-110c18-34,90-52,188-49c79,4,94,7,116,28c52,49,22,110-64,130C5367,5241,5276,5242,5236,5230z"
		/>
	<path d="M6420,5131c-78-21-104-34-124-63c-22-31-20-64,6-88c60-56,298,4,327,83C6657,5139,6563,5170,6420,5131z"/>
	<path d="M4003,5105c-35-25-31-75,9-114c57-55,209-96,271-72c64,25,57,87-14,137C4190,5111,4047,5137,4003,5105z"/>
	<path d="M2997,5092c-29-32-21-77,21-120c110-115,272-137,272-37C3290,5037,3059,5160,2997,5092z"/>
	<path d="M7896,5039c-33-26-36-79-6-109c18-18,33-20,190-20c168,0,171,0,195,25c14,13,25,36,25,50s-11,37-25,50c-24,25-27,25-188,25
		C7936,5060,7921,5058,7896,5039z"/>
	<path d="M8453,5038c-29-30-31-88-5-111c28-25,78-21,107,8c46,45,22,111-45,121C8482,5061,8471,5057,8453,5038z"/>
	<path d="M3600,4890c-65-16-77-60-29-114c61-70,235-105,296-60c38,28,40,55,7,94c-32,38-92,66-161,75c-26,4-55,8-63,10
		C3642,4896,3619,4894,3600,4890z"/>
	<path d="M6188,4836c-45-22-83-147-67-224c22-110,138-88,168,32C6321,4773,6268,4875,6188,4836z"/>
	<path d="M4173,4725c-57-41-4-126,99-161c73-25,179-25,207,0c72,65-49,164-209,173C4212,4741,4190,4738,4173,4725z"/>
	<path d="M7565,4544c-30-33-32-63-4-98l20-26h283c282,0,283,0,304,23c31,33,29,80-4,106c-26,20-39,21-301,21h-274L7565,4544z"/>
	<path d="M4442,4368c-32-16-38-51-15-90c29-51,153-110,231-112c108-2,134,55,59,129C4652,4361,4507,4399,4442,4368z"/>
	<path d="M6107,4350c-67-79-49-265,28-284c14-4,35-2,46,5c72,38,80,261,11,298C6158,4387,6133,4382,6107,4350z"/>
	<path d="M8143,4162l-272-2l-20-27c-27-33-27-63,0-97l20-26h299h299l20,26c12,15,21,37,21,50c0,30-38,71-70,76
		C8426,4163,8293,4164,8143,4162z"/>
	<path d="M8660,4140c-30-30-27-83,6-109c35-28,56-26,93,5c36,30,39,61,10,98C8743,4167,8690,4170,8660,4140z"/>
	<path d="M1145,4035c-33-32-33-75,1-109l27-26h878h878l27,23c20,17,27,33,27,57s-7,40-27,57l-27,23h-880h-880L1145,4035z"/>
	<path d="M4844,3999c-59-66,55-269,152-269c103,0,95,130-15,240c-40,40-57,50-84,50C4875,4020,4856,4012,4844,3999z"/>
	<path d="M6052,3880c-49-36-102-122-102-168c0-36,37-82,66-82c61,0,152,104,161,184c5,38,2,48-20,70C6123,3918,6102,3917,6052,3880z
		"/>
	<path d="M7636,3779c-35-27-36-86-3-117c23-22,29-22,334-22c299,0,311,1,337,21c17,13,26,30,26,49c0,87-12,90-368,90
		C7674,3800,7662,3799,7636,3779z"/>
	<path d="M2633,3490c-1622-6-1495,0-1509-67c-5-27-1-37,24-63l30-30h1482c1579,0,1526-2,1544,45c9,25,7,64-4,85c-9,17-76,44-90,38
		C4107,3496,3443,3493,2633,3490z"/>
	<path d="M7270,3173c-57-21-70-96-23-133c26-20,35-21,281-18l254,3l24,28c33,38,31,70-7,101l-31,26l-241-1
		C7394,3179,7278,3176,7270,3173z"/>
	<path d="M1266,3079c-33-26-35-75-5-113c29-36,99-37,134-1c55,54,16,135-65,135C1307,3100,1282,3092,1266,3079z"/>
	<path d="M1883,3093c-50-10-69-81-34-124l19-24l514-3c553-2,551-2,576,50c16,35,2,72-37,93c-26,13-96,15-523,14
		C2127,3098,1895,3095,1883,3093z"/>
	<path d="M3243,3092c-27-4-39-19-48-59c-5-27-2-37,19-58c24-23,31-25,126-25c94,0,103,2,125,25c14,13,25,31,25,39c0,33-24,66-56,76
		C3405,3100,3298,3101,3243,3092z"/>
	<path d="M3626,3058c-32-46-6-98,49-98c37,0,65,28,65,66C3740,3077,3656,3101,3626,3058z"/>
	<path d="M3065,2680c-49-18-64-82-30-120c16-18,31-20,132-20c108,0,115,1,138,25c42,41,29,96-27,114C3240,2691,3095,2691,3065,2680z
		"/>
	<path d="M1862,2657c-29-31-28-72,3-102l24-25h449c439,0,450,0,476,21c34,27,36,77,3,107c-23,22-25,22-478,22h-456L1862,2657z"/>
	<path d="M1333,2330c-57-23-66-100-16-140c30-23,134-28,177-9c57,27,66,107,14,143C1483,2342,1372,2345,1333,2330z"/>
	<path d="M8733,2330c-27-11-43-40-43-77c1-74,89-108,149-57c47,39,42,102-10,129C8798,2342,8766,2343,8733,2330z"/>
</g>
</svg>
