<?xml version="1.0" standalone="no"?>
<!DOCTYPE svg PUBLIC "-//W3C//DTD SVG 20010904//EN"
 "http://www.w3.org/TR/2001/REC-SVG-20010904/DTD/svg10.dtd">
<svg version="1.0" xmlns="http://www.w3.org/2000/svg"
 width="1024.000000pt" height="1024.000000pt" viewBox="0 0 1024.000000 1024.000000"
 preserveAspectRatio="xMidYMid meet">

<g transform="translate(0.000000,1024.000000) scale(0.100000,-0.100000)"
fill="#000000" stroke="none">
<path d="M4930 8505 c-280 -42 -497 -145 -685 -326 -154 -148 -228 -269 -305
-499 -23 -69 -94 -273 -157 -455 -63 -181 -141 -406 -173 -500 -62 -183 -277
-802 -385 -1110 -37 -104 -86 -246 -110 -315 -80 -233 -196 -564 -302 -860
-119 -332 -172 -483 -266 -750 -36 -102 -108 -309 -162 -460 -189 -538 -187
-531 -192 -610 -13 -183 86 -354 252 -436 l60 -29 240 -5 240 -5 0 -117 c0
-102 3 -120 21 -145 45 -61 57 -63 410 -63 317 0 321 0 365 23 70 37 89 80 89
205 l0 102 1245 0 1245 0 0 -98 c0 -82 4 -105 23 -142 44 -87 33 -85 418 -88
303 -2 343 -1 375 14 62 29 74 62 74 196 l0 117 233 3 233 3 64 32 c177 87
270 244 257 435 -6 93 -13 117 -170 558 -58 162 -160 448 -225 635 -66 187
-141 399 -167 470 -58 162 -460 1311 -525 1500 -72 209 -315 902 -425 1215
-53 151 -137 394 -187 540 -49 146 -108 303 -131 350 -211 434 -752 694 -1277
615z m390 -406 c143 -33 313 -124 409 -220 100 -100 160 -195 206 -329 13 -36
70 -202 128 -370 286 -830 415 -1204 484 -1400 41 -118 139 -404 218 -635 79
-231 166 -486 194 -567 l50 -148 -874 0 -875 0 0 133 0 133 44 46 c101 105
101 255 0 367 l-44 49 -2 1203 c-3 1137 -4 1206 -21 1237 -51 93 -203 96 -247
5 -10 -23 -13 -259 -14 -1235 l-2 -1207 -42 -39 c-113 -105 -113 -274 1 -390
l42 -43 3 -129 4 -130 -876 -2 c-482 -2 -876 0 -876 3 0 5 106 321 250 744 43
127 121 356 173 510 53 154 146 426 207 605 62 179 136 395 165 480 162 471
299 853 328 909 63 124 201 263 333 335 192 106 414 135 634 85z m-140 -3079
c80 -57 55 -178 -42 -199 -49 -11 -93 5 -120 41 -77 110 52 236 162 158z m111
-1120 c87 -26 171 -83 242 -160 63 -70 121 -175 132 -239 l7 -41 580 0 c516 0
584 -2 614 -16 81 -38 87 -158 12 -204 -32 -19 -51 -20 -620 -20 -477 0 -588
-2 -588 -13 0 -7 -18 -51 -41 -97 -71 -148 -214 -264 -374 -305 -76 -19 -214
-19 -288 0 -180 47 -338 197 -396 377 l-12 38 -601 2 -600 3 -29 33 c-34 38
-39 94 -13 143 30 59 27 59 663 59 l579 0 7 41 c4 22 25 76 46 120 74 146 217
257 379 294 83 19 214 12 301 -15z"/>
<path d="M4472 7160 c-28 -12 -52 -66 -45 -102 3 -14 16 -37 30 -50 23 -21 34
-23 161 -26 169 -4 208 5 228 55 19 44 10 87 -23 113 -23 18 -40 20 -177 19
-83 0 -161 -4 -174 -9z"/>
<path d="M5430 7163 c-28 -10 -50 -48 -50 -86 0 -30 7 -46 30 -68 l30 -30 161
3 161 3 24 28 c41 48 30 117 -23 145 -22 12 -302 16 -333 5z"/>
<path d="M4520 6690 c-113 -3 -210 -8 -217 -13 -22 -14 -35 -72 -23 -103 25
-65 21 -64 271 -64 224 0 228 0 255 23 56 49 24 150 -49 158 -18 2 -124 2
-237 -1z"/>
<path d="M5415 6665 c-34 -33 -33 -84 1 -124 l26 -31 228 0 228 0 26 31 c14
17 26 42 26 55 0 32 -25 80 -45 88 -9 3 -118 6 -241 6 l-225 0 -24 -25z"/>
<path d="M4162 6210 c-28 -12 -56 -74 -47 -107 3 -14 17 -36 30 -49 l24 -24
286 0 c320 0 334 3 355 64 14 45 -7 102 -45 116 -33 13 -572 12 -603 0z"/>
<path d="M5503 6210 c-12 -5 -26 -18 -32 -29 -17 -31 -13 -93 9 -121 l19 -25
263 -3 c144 -2 273 0 285 3 38 9 63 45 63 89 -1 44 -13 66 -47 84 -26 14 -526
16 -560 2z"/>
<path d="M4217 5740 c-236 -5 -239 -5 -258 -29 -27 -33 -24 -83 7 -120 l26
-31 263 0 c145 0 271 3 280 6 19 8 45 55 45 84 0 30 -27 78 -47 84 -39 11 -88
12 -316 6z"/>
<path d="M5912 5740 c-252 -5 -254 -5 -273 -29 -28 -34 -25 -96 6 -126 l24
-25 278 0 c203 1 282 4 294 13 62 47 45 146 -29 166 -20 6 -39 10 -42 9 -3 -1
-119 -5 -258 -8z"/>
<path d="M3793 5256 c-36 -31 -37 -94 -3 -132 l23 -24 239 0 239 0 24 25 c19
18 25 35 25 65 0 30 -6 47 -25 65 l-24 25 -235 0 c-234 0 -235 0 -263 -24z"/>
<path d="M5915 5255 c-16 -15 -25 -36 -25 -55 0 -37 23 -85 45 -94 9 -3 119
-6 245 -6 126 0 236 3 245 6 20 8 45 56 45 88 0 13 -12 38 -26 55 l-26 31
-239 0 -240 0 -24 -25z"/>
<path d="M3640 4827 c-70 -24 -76 -128 -9 -162 41 -22 348 -21 389 0 56 29 57
134 2 164 -29 15 -337 13 -382 -2z"/>
<path d="M6224 4833 c-59 -11 -82 -110 -36 -155 22 -22 28 -23 223 -23 l201 0
24 28 c32 37 32 87 0 124 l-24 28 -184 1 c-100 1 -193 -1 -204 -3z"/>
</g>
</svg>
