<?xml version="1.0" standalone="no"?>
<!DOCTYPE svg PUBLIC "-//W3C//DTD SVG 20010904//EN"
 "http://www.w3.org/TR/2001/REC-SVG-20010904/DTD/svg10.dtd">
<svg version="1.0" xmlns="http://www.w3.org/2000/svg"
 width="1024.000000pt" height="1024.000000pt" viewBox="0 0 1024.000000 1024.000000"
 preserveAspectRatio="xMidYMid meet">

<g transform="translate(0.000000,1024.000000) scale(0.100000,-0.100000)"
fill="#000000" stroke="none">
<path d="M8600 8866 c-102 -62 -363 -217 -580 -346 -217 -128 -427 -252 -466
-276 l-72 -44 -12 -86 c-17 -120 -2 -250 42 -352 l18 -43 37 36 c58 57 153 98
229 101 64 2 68 4 327 155 234 136 656 387 666 395 7 6 11 574 3 573 -4 0 -90
-51 -192 -113z"/>
<path d="M3115 8600 c-308 -26 -604 -135 -867 -320 -111 -78 -340 -302 -427
-418 -253 -337 -394 -729 -453 -1257 -18 -161 -18 -757 0 -925 75 -698 231
-1260 513 -1839 280 -576 590 -1007 1041 -1446 620 -605 1377 -990 2143 -1090
653 -85 1373 67 1955 413 280 167 583 437 766 682 294 395 463 829 541 1385
22 159 25 728 5 915 -32 292 -73 508 -136 712 l-44 143 18 115 c39 234 116
428 225 564 77 97 72 152 -14 150 -152 -5 -352 -245 -417 -501 -10 -40 -22
-73 -26 -73 -4 0 -24 11 -44 25 -21 14 -48 28 -61 31 -27 7 -28 16 -9 105 35
163 136 346 261 469 41 41 75 82 75 91 0 50 -81 63 -174 28 -213 -79 -387
-357 -431 -686 -5 -41 -11 -53 -24 -53 -10 0 -45 -18 -79 -40 -74 -48 -124
-112 -312 -405 -190 -298 -387 -563 -665 -895 -39 -47 -104 -127 -144 -178
-40 -50 -74 -92 -76 -92 -1 0 -34 15 -71 34 -141 69 -359 129 -523 144 l-76 7
100 59 c435 257 829 559 1156 887 126 127 176 185 363 423 59 76 122 136 180
171 10 6 21 39 30 85 30 155 107 335 197 456 93 126 200 206 342 256 45 16
100 40 123 53 80 47 143 137 159 228 6 31 19 48 64 84 74 58 279 180 397 235
l94 43 0 82 c0 45 3 89 7 99 5 15 1 16 -41 10 -146 -22 -348 -99 -493 -187
-31 -19 -32 -19 -37 -1 -4 10 -22 45 -41 77 -19 31 -35 59 -35 61 0 1 33 23
73 48 97 61 224 118 343 156 55 17 115 39 134 48 45 22 50 52 14 81 -43 34
-99 44 -229 39 -106 -4 -133 -9 -230 -42 -60 -20 -153 -60 -205 -87 -85 -45
-103 -51 -165 -53 -83 -3 -163 -32 -219 -77 l-38 -32 74 -26 c99 -36 154 -69
212 -130 101 -109 135 -255 88 -373 -18 -44 -88 -104 -150 -129 -110 -43 -168
-78 -242 -143 -179 -159 -317 -219 -615 -266 -184 -30 -211 -37 -235 -62 -51
-55 -1 -138 83 -138 36 0 220 25 341 46 l39 7 -19 -32 c-27 -47 -186 -198
-285 -271 -100 -75 -236 -142 -341 -169 -42 -11 -141 -27 -220 -36 -267 -29
-281 -32 -300 -56 -25 -30 -22 -73 6 -106 l24 -28 149 1 c87 0 193 7 257 17
95 15 112 16 124 3 22 -21 7 -49 -55 -106 -104 -95 -239 -177 -358 -218 -184
-63 -343 -65 -580 -8 -88 22 -103 23 -132 11 -64 -27 -56 -101 18 -150 83 -56
165 -76 458 -112 36 -4 66 -13 68 -20 9 -27 -97 -95 -207 -133 -81 -28 -255
-39 -337 -20 -82 18 -186 64 -302 132 -118 70 -160 78 -192 39 -30 -36 -24
-75 17 -121 41 -45 167 -132 259 -178 33 -16 68 -39 78 -50 17 -19 17 -21 -5
-45 -32 -36 -107 -58 -218 -64 -145 -8 -259 21 -442 113 -59 30 -117 54 -128
54 -32 0 -70 -44 -70 -82 0 -53 75 -114 246 -198 123 -62 145 -75 142 -93 -4
-29 -51 -54 -148 -78 -109 -28 -261 -23 -368 10 -70 22 -74 22 -92 6 -65 -59
38 -214 192 -289 166 -81 307 -89 628 -36 107 17 249 34 315 37 215 10 428
-29 600 -111 l94 -44 -44 -94 c-46 -98 -90 -235 -101 -316 -15 -117 87 -184
170 -112 25 22 44 56 71 126 107 275 258 505 635 969 271 334 410 532 585 840
132 233 163 272 233 296 79 27 183 -40 244 -158 72 -137 129 -370 144 -588 6
-85 5 -95 -10 -95 -23 0 -88 -34 -107 -56 -9 -11 -33 -50 -54 -89 -101 -187
-240 -358 -407 -501 -57 -49 -64 -89 -23 -129 35 -36 72 -32 145 17 139 92
300 270 407 448 27 44 51 79 55 80 14 0 20 -137 9 -208 -24 -157 -96 -276
-270 -444 -224 -219 -436 -331 -754 -402 -54 -12 -82 -66 -61 -121 12 -29 61
-47 112 -40 216 30 477 142 694 296 53 38 104 69 114 69 28 0 12 -79 -31 -150
-89 -147 -288 -303 -490 -386 -133 -55 -392 -104 -546 -104 -82 0 -119 -23
-119 -74 0 -82 55 -101 258 -92 211 10 350 40 570 124 51 19 95 32 99 28 4 -3
-1 -21 -9 -39 -55 -113 -256 -260 -442 -323 -157 -54 -411 -77 -591 -55 -92
12 -99 12 -124 -7 -19 -14 -27 -30 -29 -59 -6 -75 52 -102 262 -124 147 -16
345 2 520 47 32 8 61 12 65 9 11 -12 -124 -129 -208 -179 -96 -57 -224 -108
-336 -131 -82 -17 -287 -26 -300 -13 -4 4 0 19 9 33 25 37 35 70 27 83 -5 9
-36 3 -112 -22 -195 -65 -356 -70 -588 -21 -84 18 -134 34 -151 48 -237 196
-300 237 -465 308 -124 53 -177 57 -208 17 -35 -47 -10 -81 140 -185 70 -50
141 -97 157 -105 l29 -15 -50 -6 c-52 -6 -164 5 -248 24 -72 17 -167 62 -241
114 -109 78 -165 152 -314 417 -74 132 -252 280 -404 337 -68 25 -102 21 -118
-14 -18 -40 -1 -70 89 -157 90 -84 218 -213 263 -262 l25 -28 -40 7 c-77 13
-168 38 -214 58 -229 100 -409 339 -456 602 -38 219 -46 253 -75 312 -17 34
-43 71 -57 83 -36 28 -78 26 -99 -5 -15 -23 -16 -36 -5 -111 7 -47 21 -113 31
-147 11 -34 20 -66 20 -70 0 -5 -28 16 -61 45 -93 80 -180 204 -260 368 -76
155 -118 215 -175 250 -29 19 -40 21 -59 12 -14 -6 -27 -23 -31 -38 -11 -41 3
-143 29 -227 14 -42 21 -77 15 -77 -5 0 -44 35 -86 78 -119 119 -177 247 -202
444 -13 104 -3 243 26 354 13 51 12 59 -7 117 -57 170 -141 279 -204 263 -42
-11 -50 -44 -37 -145 11 -78 44 -212 67 -263 11 -27 -7 -22 -58 18 -155 121
-212 370 -137 596 27 77 65 150 95 178 l23 22 78 -52 c390 -264 858 -309 1443
-139 321 93 730 272 1126 492 501 277 973 611 1710 1210 94 76 290 233 437
350 214 170 267 216 264 232 -3 11 -16 51 -31 89 -14 39 -33 102 -41 140 -18
82 -20 261 -4 330 6 27 8 51 5 54 -3 3 -5 0 -5 -6 0 -7 -64 -59 -141 -118
l-142 -106 7 53 c10 75 62 193 111 253 22 28 68 72 100 99 33 26 63 54 68 62
25 45 -43 92 -117 80 -113 -19 -271 -144 -342 -271 -67 -120 -97 -215 -116
-373 l-13 -103 -40 -28 c-57 -38 -541 -325 -790 -467 -268 -153 -536 -299
-741 -401 l-161 -81 -6 132 c-24 484 -207 880 -560 1213 -288 272 -638 425
-1036 454 -139 10 -138 10 -266 0z m441 -191 c213 -36 412 -114 579 -224 82
-55 194 -156 215 -195 14 -26 20 -28 -83 38 -76 49 -244 130 -322 155 -53 18
-213 47 -249 47 -11 -1 8 -12 43 -25 35 -14 85 -41 112 -61 48 -35 116 -111
107 -120 -3 -2 -29 0 -58 6 -57 11 -153 13 -185 4 -11 -3 -28 -22 -38 -42 -9
-20 -41 -63 -70 -96 l-53 -59 -64 67 c-96 100 -217 169 -333 191 l-38 7 26
-38 c27 -39 41 -81 32 -91 -3 -3 -39 8 -79 25 -97 40 -160 52 -269 52 -203 0
-403 -76 -596 -226 -46 -36 -83 -61 -83 -56 0 5 29 43 65 85 80 94 207 191
331 254 52 27 94 51 94 56 0 13 -86 7 -162 -12 -42 -11 -104 -34 -139 -52 -73
-36 -66 -21 21 46 169 130 389 217 675 269 125 22 378 20 521 -5z m-402 -578
c111 -29 207 -76 300 -145 52 -38 84 -56 91 -50 7 5 46 37 88 70 126 103 237
144 387 144 148 0 292 -53 407 -149 161 -135 275 -372 289 -601 l6 -85 -38 65
c-21 36 -77 104 -124 152 -69 70 -101 94 -165 125 -68 32 -92 38 -162 41 -175
8 -289 -71 -329 -229 -26 -100 -5 -190 64 -282 49 -64 112 -106 259 -171 147
-65 241 -125 312 -201 52 -54 53 -58 48 -102 -2 -25 -24 -83 -46 -129 -109
-219 -333 -436 -578 -558 -97 -49 -258 -101 -373 -123 -127 -23 -399 -23 -526
0 -181 33 -361 104 -508 202 -70 46 -206 174 -252 236 l-37 51 22 46 c37 76
103 162 187 243 98 94 173 147 339 239 181 102 203 116 261 176 123 126 147
290 62 419 -111 168 -357 196 -578 68 -129 -75 -297 -268 -383 -438 -25 -52
-71 -178 -82 -229 -9 -43 -14 -28 -24 70 -21 200 34 415 148 584 43 62 145
164 219 217 94 68 82 107 -26 83 -133 -30 -278 -120 -438 -272 -85 -81 -96
-89 -90 -63 22 89 217 309 356 400 151 100 313 169 480 206 113 25 318 20 434
-10z m1194 -645 c57 -31 78 -111 45 -166 -21 -37 -56 -55 -102 -54 -48 2 -85
26 -106 71 -23 49 -13 94 31 132 38 34 90 41 132 17z m-1602 -91 c46 -35 61
-88 41 -138 -18 -42 -68 -77 -111 -77 -41 0 -91 34 -110 75 -53 110 82 214
180 140z m-778 -1674 c2 -14 -4 -61 -13 -105 -10 -50 -16 -111 -13 -159 1 -42
0 -77 -3 -77 -13 0 -60 71 -74 111 -31 86 -15 169 43 232 31 32 56 32 60 -2z
m251 -856 c47 -54 69 -105 97 -223 13 -59 32 -126 41 -150 9 -23 13 -45 10
-48 -12 -12 -79 40 -117 90 -72 95 -119 238 -120 364 l0 43 29 -20 c16 -11 43
-37 60 -56z m288 -815 c61 -47 107 -120 147 -230 18 -52 37 -103 41 -112 10
-25 0 -23 -50 12 -57 39 -110 102 -145 170 -48 95 -79 227 -47 203 6 -5 31
-25 54 -43z m580 -239 c67 -65 93 -111 143 -246 22 -60 56 -137 76 -172 42
-75 36 -78 -67 -26 -144 71 -268 229 -299 380 -12 54 -9 141 5 163 8 13 77
-35 142 -99z m-31 -579 c-10 -9 -86 50 -105 81 -35 58 -24 54 44 -13 35 -35
63 -66 61 -68z m835 -260 c25 -23 70 -76 99 -119 30 -43 64 -91 77 -106 13
-16 23 -32 23 -37 0 -14 -121 19 -187 52 -114 56 -254 204 -314 333 -59 127
-58 127 107 16 82 -54 170 -117 195 -139z m-566 32 c22 -13 61 -45 87 -71 47
-49 162 -212 154 -220 -9 -9 -85 18 -129 48 -84 56 -179 178 -194 250 -6 29
-5 31 18 24 13 -4 42 -18 64 -31z m1008 -245 c110 -56 239 -151 357 -264 63
-61 131 -123 150 -138 l35 -27 -70 0 c-80 0 -178 21 -233 49 -112 57 -222 170
-275 284 -26 53 -44 127 -33 127 4 0 35 -14 69 -31z m-278 -327 c28 -14 64
-36 82 -49 35 -27 143 -150 143 -163 0 -13 -87 8 -138 34 -61 31 -130 100
-166 166 l-28 51 29 -7 c15 -4 51 -18 78 -32z m1651 -16 c148 -62 351 -100
503 -94 45 2 81 0 81 -3 0 -26 -148 -100 -261 -131 -110 -30 -347 -33 -448 -5
-134 38 -259 117 -339 215 l-36 43 30 -7 c41 -11 282 -8 324 4 54 15 60 14
146 -22z m-671 -370 c62 -16 265 -114 265 -128 0 -14 -212 -8 -278 7 -96 23
-185 73 -218 124 l-16 24 93 -6 c52 -3 121 -13 154 -21z"/>
<path d="M3480 6984 c-74 -32 -110 -86 -110 -164 0 -79 44 -142 123 -175 l37
-15 0 -80 0 -80 -32 0 c-65 1 -169 30 -252 70 -81 40 -86 41 -114 26 -57 -29
-50 -91 15 -145 160 -133 488 -161 700 -60 156 74 210 179 113 219 -29 12 -34
10 -83 -23 -72 -48 -108 -65 -156 -73 l-41 -7 0 81 c0 71 2 81 19 87 31 10 99
90 112 133 6 22 9 56 5 75 -9 47 -56 110 -99 130 -46 22 -187 23 -237 1z m246
-47 c53 -46 1 -110 -56 -68 -31 23 -38 60 -14 78 25 18 39 16 70 -10z"/>
<path d="M2758 4999 c-33 -18 -23 -79 23 -148 22 -34 50 -68 62 -76 48 -34
117 -8 117 43 0 25 -35 86 -87 150 -28 34 -41 42 -66 42 -18 0 -40 -5 -49 -11z"/>
<path d="M2930 4460 c-30 -30 -25 -71 14 -122 38 -50 76 -78 104 -78 23 0 62
40 62 64 0 26 -27 72 -67 117 -41 45 -80 52 -113 19z"/>
<path d="M3626 3984 c-54 -54 50 -268 179 -367 108 -83 176 -99 214 -51 36 46
37 45 -115 184 -34 30 -87 95 -118 143 -32 48 -66 92 -76 97 -28 15 -67 12
-84 -6z"/>
<path d="M4820 3533 c-24 -9 -40 -35 -40 -65 0 -37 104 -148 138 -148 28 0 72
42 72 69 0 26 -73 117 -110 136 -31 16 -36 17 -60 8z"/>
<path d="M4520 3313 c-37 -47 -6 -107 109 -216 90 -85 198 -143 299 -161 47
-8 100 16 108 49 12 48 -9 71 -123 129 -64 33 -138 81 -181 118 -141 121 -171
132 -212 81z"/>
<path d="M5517 2862 c-10 -10 -17 -34 -17 -52 0 -68 151 -173 310 -216 97 -26
267 -23 343 6 31 12 62 30 67 40 16 31 12 76 -10 95 -18 17 -36 18 -148 16
-164 -3 -244 14 -378 79 -113 54 -142 60 -167 32z"/>
</g>
</svg>
