<svg xmlns="http://www.w3.org/2000/svg" viewBox="0 0 100 104" fill="none">
  <ellipse cx="50" cy="14.2" rx="10" ry="3.6" fill="#f1dccb"/>
  <ellipse cx="50" cy="18.6" rx="17" ry="4.4" fill="#edcab7"/>
  <ellipse cx="50" cy="24.2" rx="23" ry="4.6" fill="#e9b39f"/>
  <ellipse cx="50" cy="29.8" rx="27" ry="4.6" fill="#dd9184"/>
  <ellipse cx="50" cy="35.4" rx="28" ry="4.6" fill="#d1868a"/>
  <ellipse cx="50" cy="41" rx="28" ry="4.6" fill="#b98b96"/>
  <ellipse cx="50" cy="46.6" rx="27" ry="4.6" fill="#90909c"/>
  <ellipse cx="50" cy="52.2" rx="25" ry="4.5" fill="#6d8a9a"/>
  <ellipse cx="50" cy="57.8" rx="21" ry="4.4" fill="#4c7b8e"/>
  <ellipse cx="50" cy="63.4" rx="17" ry="4.2" fill="#3a6d82"/>
  <ellipse cx="50" cy="69" rx="14" ry="4" fill="#2f6379"/>
  <ellipse cx="50" cy="73.9" rx="12" ry="3.8" fill="#2b4a5a"/>
  <ellipse cx="50" cy="78.8" rx="12" ry="3.7" fill="#26404f"/>
  <ellipse cx="50" cy="83.7" rx="12" ry="3.7" fill="#223744"/>
  <ellipse cx="50" cy="88.2" rx="9.5" ry="3.4" fill="#1d2e39"/>
  <ellipse cx="50" cy="92.2" rx="5.5" ry="2.8" fill="#18242e"/>
</svg>
